<?xml version="1.0" encoding="UTF-8"?>
<svg xmlns="http://www.w3.org/2000/svg" xmlns:xlink="http://www.w3.org/1999/xlink" width="65pt" height="13pt" viewBox="0 0 65 13" version="1.1">
<g id="surface1">
<path style=" stroke:none;fill-rule:nonzero;fill:rgb(11.764706%,10.588235%,11.372549%);fill-opacity:1;" d="M 14.914062 8.046875 L 14.164062 7.980469 C 13.574219 7.929688 13.347656 7.695312 13.347656 7.292969 C 13.347656 6.816406 13.707031 6.523438 14.390625 6.523438 C 14.875 6.523438 15.300781 6.636719 15.632812 6.894531 L 16.082031 6.445312 C 15.664062 6.101562 15.066406 5.941406 14.398438 5.941406 C 13.402344 5.941406 12.683594 6.457031 12.683594 7.3125 C 12.683594 8.082031 13.167969 8.492188 14.078125 8.570312 L 14.847656 8.636719 C 15.386719 8.683594 15.625 8.910156 15.625 9.320312 C 15.625 9.875 15.148438 10.148438 14.382812 10.148438 C 13.800781 10.148438 13.300781 9.996094 12.929688 9.605469 L 12.472656 10.0625 C 12.984375 10.558594 13.601562 10.738281 14.390625 10.738281 C 15.519531 10.738281 16.289062 10.214844 16.289062 9.3125 C 16.289062 8.4375 15.726562 8.121094 14.910156 8.046875 Z M 20.753906 5.941406 C 20.007812 5.941406 19.535156 6.089844 19.121094 6.613281 C 19.113281 6.621094 19.570312 7.066406 19.570312 7.066406 C 19.84375 6.675781 20.148438 6.53125 20.746094 6.53125 C 21.601562 6.53125 21.941406 6.875 21.941406 7.558594 L 21.941406 8.007812 L 20.539062 8.007812 C 19.492188 8.007812 18.925781 8.539062 18.925781 9.359375 C 18.914062 9.710938 19.039062 10.050781 19.273438 10.3125 C 19.570312 10.617188 19.949219 10.742188 20.59375 10.742188 C 21.222656 10.742188 21.5625 10.617188 21.941406 10.234375 L 21.941406 10.683594 L 22.625 10.683594 L 22.625 7.503906 C 22.625 6.484375 22.007812 5.941406 20.757812 5.941406 Z M 21.941406 9.027344 C 21.941406 9.417969 21.867188 9.683594 21.703125 9.835938 C 21.410156 10.121094 21.058594 10.152344 20.660156 10.152344 C 19.921875 10.152344 19.589844 9.894531 19.589844 9.351562 C 19.589844 8.808594 19.929688 8.523438 20.632812 8.523438 L 21.941406 8.523438 Z M 25.300781 6.550781 C 25.746094 6.550781 26.023438 6.683594 26.375 7.074219 C 26.375 7.074219 26.832031 6.628906 26.828125 6.625 C 26.347656 6.109375 25.941406 5.941406 25.300781 5.941406 C 24.125 5.941406 23.234375 6.742188 23.234375 8.339844 C 23.234375 9.941406 24.125 10.742188 25.300781 10.742188 C 25.949219 10.742188 26.355469 10.570312 26.839844 10.046875 L 26.375 9.597656 C 26.023438 9.988281 25.75 10.132812 25.300781 10.132812 C 24.875 10.148438 24.46875 9.949219 24.21875 9.597656 C 24 9.292969 23.917969 8.929688 23.917969 8.339844 C 23.917969 7.75 24 7.390625 24.21875 7.085938 C 24.46875 6.734375 24.875 6.535156 25.300781 6.550781 Z M 31.152344 5.992188 L 30.300781 5.992188 L 28.183594 8.058594 L 28.1875 3.902344 L 27.503906 3.902344 L 27.503906 10.683594 L 28.1875 10.683594 L 28.183594 8.972656 L 29.015625 8.140625 L 30.582031 10.683594 L 31.425781 10.683594 L 29.488281 7.664062 Z M 34.3125 5.875 C 33.613281 5.875 33.136719 6.152344 32.847656 6.460938 C 32.417969 6.90625 32.308594 7.445312 32.308594 8.304688 C 32.308594 9.171875 32.417969 9.707031 32.847656 10.15625 C 33.136719 10.464844 33.609375 10.742188 34.3125 10.742188 C 35.011719 10.742188 35.492188 10.464844 35.785156 10.15625 C 36.210938 9.710938 36.320312 9.171875 36.320312 8.304688 C 36.320312 7.445312 36.210938 6.90625 35.785156 6.460938 C 35.492188 6.152344 35.011719 5.875 34.3125 5.875 Z M 34.867188 9.460938 C 34.71875 9.605469 34.515625 9.683594 34.3125 9.671875 C 34.109375 9.683594 33.910156 9.605469 33.765625 9.460938 C 33.519531 9.214844 33.492188 8.796875 33.492188 8.304688 C 33.492188 7.8125 33.519531 7.402344 33.765625 7.15625 C 33.910156 7.011719 34.109375 6.933594 34.3125 6.945312 C 34.515625 6.933594 34.71875 7.011719 34.867188 7.15625 C 35.113281 7.402344 35.140625 7.8125 35.140625 8.304688 C 35.140625 8.796875 35.113281 9.214844 34.867188 9.460938 Z M 39.46875 5.929688 L 38.515625 8.871094 L 37.550781 5.929688 L 36.304688 5.929688 L 38.050781 10.683594 L 38.980469 10.683594 L 40.714844 5.929688 Z M 42.726562 5.875 C 41.5 5.875 40.664062 6.753906 40.664062 8.304688 C 40.664062 10.230469 41.738281 10.738281 42.855469 10.738281 C 43.710938 10.738281 44.175781 10.476562 44.65625 9.992188 L 43.9375 9.289062 C 43.636719 9.589844 43.382812 9.738281 42.863281 9.738281 C 42.199219 9.738281 41.828125 9.289062 41.828125 8.675781 L 44.792969 8.675781 L 44.792969 8.148438 C 44.792969 6.84375 44.046875 5.875 42.726562 5.875 Z M 41.828125 7.867188 C 41.828125 7.691406 41.867188 7.515625 41.9375 7.355469 C 42.085938 7.054688 42.390625 6.863281 42.726562 6.863281 C 43.0625 6.863281 43.371094 7.054688 43.519531 7.355469 C 43.589844 7.515625 43.625 7.691406 43.628906 7.867188 Z M 46.535156 6.386719 L 46.535156 5.929688 L 45.382812 5.929688 L 45.382812 10.683594 L 46.5625 10.683594 L 46.5625 7.820312 C 46.5625 7.21875 46.964844 6.945312 47.328125 6.945312 C 47.566406 6.9375 47.796875 7.039062 47.953125 7.222656 L 48.847656 6.324219 C 48.519531 5.996094 48.191406 5.875 47.726562 5.875 C 47.277344 5.871094 46.84375 6.058594 46.535156 6.386719 Z M 49.214844 5.4375 L 49.214844 10.679688 L 50.394531 10.679688 L 50.394531 6.933594 L 51.269531 6.933594 L 51.269531 6.027344 L 50.394531 6.027344 L 50.394531 5.507812 C 50.394531 5.234375 50.53125 5.078125 50.8125 5.078125 L 51.269531 5.078125 L 51.269531 4.078125 L 50.597656 4.078125 C 49.632812 4.078125 49.214844 4.761719 49.214844 5.4375 Z M 56.136719 5.875 C 55.4375 5.875 54.964844 6.148438 54.671875 6.460938 C 54.246094 6.90625 54.136719 7.445312 54.136719 8.304688 C 54.136719 9.171875 54.246094 9.707031 54.671875 10.15625 C 54.964844 10.464844 55.4375 10.738281 56.136719 10.738281 C 56.835938 10.738281 57.320312 10.464844 57.609375 10.15625 C 58.039062 9.707031 58.148438 9.171875 58.148438 8.304688 C 58.148438 7.445312 58.039062 6.90625 57.609375 6.460938 C 57.320312 6.148438 56.835938 5.875 56.136719 5.875 Z M 56.691406 9.460938 C 56.542969 9.605469 56.34375 9.679688 56.136719 9.671875 C 55.933594 9.683594 55.734375 9.605469 55.589844 9.460938 C 55.347656 9.214844 55.320312 8.796875 55.320312 8.304688 C 55.320312 7.808594 55.347656 7.398438 55.589844 7.152344 C 55.734375 7.011719 55.933594 6.933594 56.136719 6.945312 C 56.34375 6.933594 56.542969 7.011719 56.691406 7.152344 C 56.9375 7.398438 56.964844 7.808594 56.964844 8.304688 C 56.964844 8.796875 56.9375 9.214844 56.691406 9.460938 Z M 63.734375 5.929688 L 62.96875 8.871094 L 61.996094 5.929688 L 61.132812 5.929688 L 60.167969 8.871094 L 59.40625 5.929688 L 58.148438 5.929688 L 59.605469 10.683594 L 60.578125 10.683594 L 61.570312 7.703125 L 62.5625 10.683594 L 63.535156 10.683594 L 64.980469 5.929688 Z M 53.011719 9.253906 L 53.011719 4.078125 L 51.832031 4.078125 L 51.832031 9.324219 C 51.832031 10 52.242188 10.683594 53.214844 10.683594 L 53.886719 10.683594 L 53.886719 9.679688 L 53.433594 9.679688 C 53.132812 9.679688 53.015625 9.535156 53.015625 9.253906 Z M 18.183594 6.734375 L 18.816406 6.101562 L 17.519531 6.101562 L 17.519531 4.558594 L 16.839844 4.558594 L 16.839844 9.425781 C 16.839844 10.121094 17.238281 10.683594 18.035156 10.683594 L 18.519531 10.683594 L 18.519531 10.09375 L 18.15625 10.09375 C 17.71875 10.09375 17.519531 9.835938 17.519531 9.40625 L 17.519531 6.734375 Z M 18.183594 6.734375 "/>
<path style=" stroke:none;fill-rule:evenodd;fill:rgb(73.333333%,73.333333%,73.333333%);fill-opacity:1;" d="M 9.195312 8.386719 L 10.34375 8.386719 L 10.34375 13 L 0 13 L 0 8.386719 L 1.148438 8.386719 L 1.148438 11.847656 L 9.195312 11.847656 Z M 9.195312 8.386719 "/>
<path style=" stroke:none;fill-rule:nonzero;fill:rgb(96.078431%,50.196078%,14.509804%);fill-opacity:1;" d="M 2.402344 8.042969 L 8.046875 9.234375 L 8.285156 8.101562 L 2.640625 6.910156 Z M 3.148438 5.332031 L 8.378906 7.777344 L 8.867188 6.726562 L 3.636719 4.28125 Z M 4.597656 2.757812 L 9.03125 6.460938 L 9.769531 5.574219 L 5.335938 1.867188 Z M 7.457031 0.0195312 L 6.53125 0.710938 L 9.976562 5.355469 L 10.902344 4.664062 Z M 2.300781 10.695312 L 8.046875 10.695312 L 8.046875 9.539062 L 2.300781 9.539062 Z M 2.300781 10.695312 "/>
</g>
</svg>
